<?xml version="1.0" standalone="no"?>
<svg xmlns="http://www.w3.org/2000/svg" viewBox="0 0 193 71" width="193" height="71"><g fill="#5c989b" color="#5c989b" transform="translate(88.136 0) scale(0.1630267) "><svg width="100.0" height="190.153" x="0.0" y="0.0" viewBox="0 0 100 190.153"><g><polygon fill="currentColor" points="86.282,190.153 16.625,190.153 9.417,87.497 93.484,87.497  "></polygon><g><path fill="currentColor" d="M99.672,80.529c0,1.391-1.275,2.529-2.835,2.529H3.305c-1.559,0-2.834-1.025-2.834-2.279    s1.217-2.66,2.705-3.126l4.59-1.436c1.488-0.466,2.705-2.122,2.705-3.681v-2.018c0-1.559,1.275-2.834,2.834-2.834h73.532    c1.56,0,2.835,1.275,2.835,2.834v2.018c0,1.559,1.233,3.159,2.741,3.555l4.518,1.188C98.438,77.676,99.672,79.139,99.672,80.529z"></path></g></g><g><g><path fill="currentColor" d="M22.271,1.46c-5.315,6.353-9.067,15.971-5.484,24.001c3.123,7,11.552,10.077,10.042,18.829    c-0.713,4.136-3.417,6.776-5.027,10.389c-1.561,3.502,3.608,6.557,5.181,3.028c1.346-3.02,3.511-5.597,4.751-8.759    c2.017-5.14,1.634-10.656-0.916-15.5c-1.525-2.899-4.317-4.827-6.53-7.134c-2.699-2.813-3.277-6.867-2.611-10.547    c0.636-3.52,2.777-7.603,4.836-10.065C28.978,2.756,24.757-1.512,22.271,1.46L22.271,1.46z"></path></g></g><g><g><path fill="currentColor" d="M45.399,1.46c-5.314,6.353-9.066,15.971-5.484,24.001c3.122,7,11.55,10.077,10.041,18.829    c-0.713,4.136-3.417,6.776-5.026,10.389c-1.56,3.502,3.609,6.557,5.181,3.028c1.346-3.02,3.51-5.598,4.75-8.759    c2.016-5.14,1.634-10.656-0.915-15.5c-1.525-2.899-4.316-4.827-6.529-7.134c-2.699-2.813-3.276-6.867-2.611-10.547    c0.636-3.52,2.777-7.603,4.836-10.065C52.105,2.756,47.884-1.512,45.399,1.46L45.399,1.46z"></path></g></g><g><g><path fill="currentColor" d="M68.31,1.46c-5.315,6.353-9.067,15.971-5.484,24.001c3.122,7,11.552,10.077,10.042,18.829    c-0.713,4.136-3.417,6.776-5.027,10.389c-1.561,3.502,3.608,6.557,5.182,3.028c1.346-3.02,3.511-5.597,4.751-8.759    c2.017-5.14,1.634-10.656-0.915-15.5c-1.526-2.899-4.317-4.827-6.531-7.134c-2.699-2.813-3.276-6.867-2.611-10.547    c0.637-3.521,2.777-7.603,4.837-10.065C75.017,2.757,70.795-1.511,68.31,1.46L68.31,1.46z"></path></g></g></svg></g><line x1="88.62485845074427" y1="37" x2="103.94936029925573" y2="37" stroke="#0b4e54" stroke-linecap="round"></line><path fill="#0b4e54" fill-rule="nonzero" d="M4.86 22.43L4.86 22.43Q4.39 22.43 3.85 22.35Q3.30 22.28 2.76 22.03Q2.21 21.79 1.72 21.33Q1.22 20.88 0.84 20.14Q0.46 19.41 0.23 18.32Q0 17.24 0 15.74L0 15.74L0 8.65Q0 7.14 0.23 6.06Q0.47 4.99 0.86 4.26Q1.24 3.53 1.75 3.09Q2.25 2.66 2.79 2.43Q3.33 2.20 3.86 2.13Q4.39 2.06 4.85 2.06L4.85 2.06Q6.05 2.06 6.85 2.40Q7.65 2.73 8.14 3.31Q8.63 3.89 8.83 4.66Q9.04 5.44 9.04 6.30L9.04 6.30Q9.04 6.95 8.97 7.49Q8.91 8.04 8.78 8.70L8.78 8.70L6.32 8.70L6.32 7.68Q6.32 6.02 5.95 5.20Q5.59 4.38 4.89 4.38L4.89 4.38Q4.46 4.38 4.15 4.55Q3.83 4.71 3.62 5.10Q3.41 5.50 3.30 6.14Q3.19 6.79 3.19 7.75L3.19 7.75L3.19 16.89Q3.19 17.82 3.28 18.45Q3.36 19.07 3.56 19.44Q3.76 19.82 4.08 19.97Q4.41 20.13 4.86 20.13L4.86 20.13Q5.16 20.13 5.43 20.00Q5.70 19.86 5.90 19.58Q6.11 19.29 6.23 18.85Q6.35 18.41 6.35 17.81L6.35 17.81L6.35 15.86L9.13 15.86L9.13 17.71Q9.13 20.12 8.03 21.27Q6.93 22.42 4.86 22.43ZM15.40 22.43L15.40 22.43Q14.88 22.43 14.35 22.35Q13.82 22.27 13.32 22.01Q12.82 21.75 12.38 21.27Q11.94 20.79 11.61 20.00Q11.29 19.22 11.10 18.07Q10.91 16.92 10.91 15.33L10.91 15.33L10.91 12.80Q10.91 11.23 11.10 10.11Q11.30 8.99 11.63 8.23Q11.96 7.46 12.41 7.01Q12.86 6.56 13.35 6.32Q13.85 6.08 14.38 6.01Q14.91 5.93 15.41 5.93L15.41 5.93Q15.89 5.93 16.41 6Q16.92 6.07 17.41 6.30Q17.91 6.53 18.35 6.98Q18.79 7.43 19.12 8.19Q19.45 8.95 19.65 10.08Q19.84 11.21 19.84 12.80L19.84 12.80L19.84 15.33Q19.84 16.90 19.64 18.04Q19.44 19.17 19.10 19.96Q18.76 20.74 18.32 21.23Q17.87 21.71 17.38 21.98Q16.89 22.25 16.38 22.34Q15.87 22.43 15.40 22.43ZM15.42 20.14L15.42 20.14Q15.82 20.14 16.10 19.94Q16.37 19.73 16.54 19.27Q16.71 18.80 16.79 18.03Q16.86 17.26 16.86 16.13L16.86 16.13L16.86 12.15Q16.86 11.02 16.79 10.24Q16.71 9.47 16.54 8.99Q16.37 8.52 16.10 8.31Q15.82 8.10 15.42 8.10L15.42 8.10Q15 8.10 14.71 8.31Q14.43 8.52 14.24 8.99Q14.05 9.47 13.97 10.24Q13.89 11.02 13.89 12.15L13.89 12.15L13.89 16.13Q13.89 17.26 13.97 18.03Q14.05 18.80 14.24 19.27Q14.43 19.73 14.71 19.94Q15 20.14 15.42 20.14ZM22.86 22.25L22.86 8.23L21.47 8.23L21.47 6.12L22.86 6.12L22.86 4.96Q22.86 3.64 23.13 2.82Q23.40 1.99 23.88 1.53Q24.35 1.07 24.99 0.90Q25.63 0.74 26.37 0.74L26.37 0.74Q26.58 0.74 26.84 0.76Q27.11 0.79 27.37 0.84Q27.63 0.89 27.88 0.96Q28.14 1.03 28.34 1.14L28.34 1.14L28.34 3.22Q27.84 3.09 27.23 3.09L27.23 3.09Q26.94 3.09 26.68 3.19Q26.41 3.28 26.21 3.50Q26.02 3.71 25.90 4.07Q25.78 4.43 25.78 4.96L25.78 4.96L25.78 6.12L28.02 6.12L28.02 8.23L25.78 8.23L25.78 22.25L22.86 22.25ZM30.08 22.25L30.08 8.23L28.69 8.23L28.69 6.12L30.08 6.12L30.08 4.96Q30.08 3.64 30.35 2.82Q30.62 1.99 31.10 1.53Q31.57 1.07 32.21 0.90Q32.85 0.74 33.59 0.74L33.59 0.74Q33.80 0.74 34.06 0.76Q34.32 0.79 34.59 0.84Q34.85 0.89 35.10 0.96Q35.36 1.03 35.55 1.14L35.55 1.14L35.55 3.22Q35.06 3.09 34.45 3.09L34.45 3.09Q34.16 3.09 33.90 3.19Q33.63 3.28 33.43 3.50Q33.23 3.71 33.12 4.07Q33 4.43 33 4.96L33 4.96L33 6.12L35.24 6.12L35.24 8.23L33 8.23L33 22.25L30.08 22.25ZM40.79 22.43L40.79 22.43Q39.75 22.43 38.95 22.04Q38.14 21.66 37.59 20.84Q37.04 20.02 36.76 18.73Q36.48 17.45 36.48 15.64L36.48 15.64L36.48 12.60Q36.48 11.06 36.71 9.97Q36.94 8.87 37.31 8.13Q37.68 7.38 38.16 6.95Q38.65 6.52 39.16 6.29Q39.68 6.06 40.19 5.99Q40.70 5.93 41.13 5.93L41.13 5.93Q41.93 5.93 42.67 6.17Q43.41 6.41 43.97 6.99Q44.53 7.57 44.87 8.54Q45.20 9.52 45.20 10.97L45.20 10.97Q45.20 11.46 45.17 11.96Q45.14 12.47 45.09 12.96Q45.05 13.44 44.97 13.90Q44.89 14.36 44.81 14.74L44.81 14.74L39.46 14.74L39.46 16.38Q39.46 17.44 39.54 18.16Q39.62 18.88 39.81 19.32Q40.01 19.76 40.34 19.95Q40.68 20.14 41.18 20.14L41.18 20.14Q41.45 20.14 41.71 20.03Q41.96 19.92 42.16 19.66Q42.35 19.41 42.47 18.98Q42.59 18.55 42.59 17.92L42.59 17.92L42.59 17.41L45.06 17.41L45.06 18.04Q45.06 20.33 43.96 21.38Q42.87 22.43 40.79 22.43ZM39.46 12.75L42.43 12.75Q42.45 12.62 42.46 12.40Q42.47 12.19 42.47 11.95Q42.48 11.72 42.48 11.49Q42.48 11.26 42.48 11.10L42.48 11.10Q42.48 9.50 42.11 8.80Q41.73 8.10 40.99 8.10L40.99 8.10Q40.61 8.10 40.31 8.28Q40.02 8.46 39.83 8.89Q39.64 9.32 39.55 10.02Q39.46 10.72 39.46 11.77L39.46 11.77L39.46 12.75ZM52.25 18.20L52.25 18.20Q52.25 17.55 52.33 17.01Q52.41 16.46 52.56 15.83L52.56 15.83L54.91 15.83L54.91 16.80Q54.91 17.61 55.01 18.23Q55.11 18.86 55.34 19.28Q55.57 19.71 55.95 19.93Q56.33 20.14 56.88 20.14L56.88 20.14Q57.75 20.14 58.21 19.67Q58.66 19.20 58.66 18.28L58.66 18.28Q58.66 17.81 58.60 17.42Q58.54 17.03 58.38 16.64Q58.22 16.25 57.95 15.83Q57.68 15.40 57.26 14.87L57.26 14.87L54.09 11.11Q53.25 10.03 52.79 8.94Q52.34 7.84 52.34 6.60L52.34 6.60Q52.34 5.60 52.65 4.77Q52.96 3.94 53.54 3.33Q54.13 2.73 54.99 2.40Q55.85 2.06 56.94 2.06L56.94 2.06Q58.27 2.06 59.15 2.44Q60.04 2.81 60.56 3.42Q61.09 4.03 61.31 4.79Q61.52 5.54 61.52 6.30L61.52 6.30Q61.52 6.95 61.42 7.49Q61.32 8.04 61.20 8.70L61.20 8.70L58.85 8.70L58.85 7.75Q58.85 6.15 58.39 5.30Q57.94 4.45 56.91 4.45L56.91 4.45Q56.05 4.45 55.63 4.93Q55.21 5.40 55.21 6.20L55.21 6.20Q55.21 6.62 55.27 6.96Q55.34 7.30 55.46 7.59Q55.58 7.88 55.76 8.14Q55.93 8.41 56.16 8.71L56.16 8.71L59.68 12.97Q60.64 14.23 61.16 15.38Q61.68 16.54 61.68 17.82L61.68 17.82Q61.68 18.89 61.34 19.75Q61.01 20.60 60.39 21.20Q59.77 21.80 58.89 22.12Q58.01 22.44 56.91 22.44L56.91 22.44Q55.55 22.44 54.65 22.08Q53.75 21.71 53.22 21.12Q52.69 20.52 52.47 19.76Q52.25 19.00 52.25 18.20ZM64.04 22.25L64.04 0.94L67.01 0.94L67.01 4.73L66.86 7.50Q67.18 7.04 67.56 6.74Q67.95 6.45 68.35 6.26Q68.75 6.08 69.17 6.01Q69.59 5.93 70.00 5.93L70.00 5.93Q71.41 5.93 72.18 6.92Q72.95 7.91 72.95 9.89L72.95 9.89L72.95 22.25L69.98 22.25L69.98 10.00Q69.98 8.93 69.66 8.51Q69.33 8.10 68.70 8.10L68.70 8.10Q68.25 8.10 67.80 8.40Q67.35 8.70 67.01 9.22L67.01 9.22L67.01 22.25L64.04 22.25ZM80.09 22.43L80.09 22.43Q79.57 22.43 79.04 22.35Q78.50 22.27 78.01 22.01Q77.51 21.75 77.07 21.27Q76.63 20.79 76.30 20.00Q75.97 19.22 75.79 18.07Q75.60 16.92 75.60 15.33L75.60 15.33L75.60 12.80Q75.60 11.23 75.79 10.11Q75.98 8.99 76.32 8.23Q76.65 7.46 77.10 7.01Q77.54 6.56 78.04 6.32Q78.54 6.08 79.07 6.01Q79.59 5.93 80.10 5.93L80.10 5.93Q80.58 5.93 81.09 6Q81.61 6.07 82.10 6.30Q82.59 6.53 83.03 6.98Q83.47 7.43 83.81 8.19Q84.14 8.95 84.33 10.08Q84.53 11.21 84.53 12.80L84.53 12.80L84.53 15.33Q84.53 16.90 84.33 18.04Q84.13 19.17 83.79 19.96Q83.45 20.74 83.00 21.23Q82.56 21.71 82.07 21.98Q81.57 22.25 81.06 22.34Q80.55 22.43 80.09 22.43ZM80.11 20.14L80.11 20.14Q80.51 20.14 80.78 19.94Q81.06 19.73 81.23 19.27Q81.40 18.80 81.47 18.03Q81.55 17.26 81.55 16.13L81.55 16.13L81.55 12.15Q81.55 11.02 81.47 10.24Q81.40 9.47 81.23 8.99Q81.06 8.52 80.78 8.31Q80.51 8.10 80.11 8.10L80.11 8.10Q79.69 8.10 79.40 8.31Q79.11 8.52 78.93 8.99Q78.74 9.47 78.66 10.24Q78.57 11.02 78.57 12.15L78.57 12.15L78.57 16.13Q78.57 17.26 78.66 18.03Q78.74 18.80 78.93 19.27Q79.11 19.73 79.40 19.94Q79.69 20.14 80.11 20.14ZM90.02 21.19L90.12 23.17L90.12 27.47L87.15 27.47L87.15 6.12L89.47 6.12L89.74 7.82Q89.94 7.49 90.22 7.15Q90.49 6.81 90.86 6.54Q91.23 6.28 91.69 6.11Q92.16 5.94 92.73 5.94L92.73 5.94Q92.98 5.94 93.32 5.99Q93.67 6.04 94.04 6.22Q94.41 6.41 94.78 6.78Q95.14 7.15 95.43 7.79Q95.72 8.44 95.90 9.40Q96.08 10.36 96.08 11.73L96.08 11.73L96.08 16.62Q96.08 17.99 95.90 18.95Q95.72 19.91 95.43 20.55Q95.13 21.20 94.76 21.57Q94.38 21.95 94.00 22.14Q93.61 22.32 93.25 22.38Q92.88 22.43 92.61 22.43L92.61 22.43Q91.68 22.43 91.05 22.07Q90.42 21.70 90.02 21.19L90.02 21.19ZM90.12 9.21L90.12 18.96Q90.21 19.20 90.35 19.41Q90.48 19.62 90.66 19.78Q90.84 19.95 91.07 20.04Q91.30 20.14 91.61 20.14L91.61 20.14Q91.93 20.14 92.20 20.02Q92.47 19.90 92.67 19.58Q92.87 19.25 92.98 18.68Q93.09 18.11 93.09 17.20L93.09 17.20L93.09 11.03Q93.09 10.13 92.98 9.56Q92.87 8.99 92.68 8.66Q92.48 8.33 92.21 8.21Q91.95 8.10 91.62 8.10L91.62 8.10Q91.05 8.10 90.70 8.43Q90.34 8.77 90.12 9.21L90.12 9.21ZM102.59 22.25L106.28 2.24L109.77 2.24L113.47 22.25L110.40 22.25L109.85 18.67L106.20 18.67L105.67 22.25L102.59 22.25ZM106.55 16.38L109.50 16.38L108.09 6.41L107.96 6.41L106.55 16.38ZM115.22 22.25L115.22 6.12L117.39 6.12L117.64 7.76Q118.14 6.84 118.78 6.39Q119.41 5.93 120.08 5.93L120.08 5.93Q121.36 5.93 121.97 6.71Q122.58 7.50 122.58 9.07L122.58 9.07Q122.58 9.27 122.55 9.54Q122.52 9.82 122.47 10.12Q122.41 10.42 122.34 10.72Q122.26 11.02 122.18 11.26L122.18 11.26L120.12 11.26L120.12 9.76Q120.12 9.27 120.05 8.95Q119.99 8.64 119.88 8.44Q119.78 8.25 119.64 8.17Q119.50 8.10 119.33 8.10L119.33 8.10Q118.98 8.10 118.68 8.33Q118.38 8.55 118.18 8.96L118.18 8.96L118.18 22.25L115.22 22.25ZM124.77 23.36L126.87 23.36Q126.87 24.40 127.25 24.83Q127.64 25.27 128.45 25.27L128.45 25.27Q128.78 25.27 129.08 25.17Q129.39 25.07 129.62 24.80Q129.84 24.54 129.98 24.07Q130.13 23.60 130.13 22.86L130.13 22.86L130.13 20.32Q129.73 20.84 129.10 21.21Q128.47 21.57 127.55 21.57L127.55 21.57Q127.28 21.57 126.91 21.52Q126.55 21.47 126.16 21.28Q125.78 21.09 125.40 20.71Q125.03 20.33 124.73 19.69Q124.44 19.04 124.26 18.08Q124.08 17.11 124.08 15.74L124.08 15.74L124.08 11.50Q124.08 10.18 124.26 9.26Q124.44 8.34 124.73 7.72Q125.03 7.10 125.41 6.75Q125.79 6.40 126.18 6.22Q126.57 6.04 126.95 5.99Q127.32 5.94 127.62 5.94L127.62 5.94Q128.20 5.94 128.65 6.09Q129.11 6.25 129.44 6.50Q129.77 6.75 130.01 7.07Q130.24 7.38 130.41 7.70L130.41 7.70L130.68 6.11L132.98 6.11L132.98 21.60Q132.98 22.95 132.73 24.03Q132.47 25.11 131.92 25.88Q131.37 26.65 130.52 27.06Q129.67 27.47 128.48 27.47L128.48 27.47Q127.69 27.47 126.98 27.33Q126.28 27.19 125.75 26.83Q125.23 26.47 124.92 25.86Q124.62 25.24 124.62 24.29L124.62 24.29Q124.62 24.13 124.65 23.88Q124.69 23.64 124.77 23.36L124.77 23.36ZM128.55 19.28L128.55 19.28Q128.85 19.28 129.08 19.18Q129.30 19.08 129.49 18.91Q129.67 18.75 129.80 18.54Q129.94 18.33 130.03 18.11L130.03 18.11L130.03 9.28Q129.81 8.79 129.44 8.44Q129.07 8.10 128.54 8.10L128.54 8.10Q128.21 8.10 127.95 8.21Q127.68 8.33 127.48 8.65Q127.28 8.98 127.17 9.54Q127.05 10.11 127.05 11.02L127.05 11.02L127.05 16.32Q127.05 17.23 127.17 17.80Q127.28 18.38 127.48 18.70Q127.68 19.03 127.95 19.15Q128.23 19.28 128.55 19.28ZM139.98 22.43L139.98 22.43Q138.94 22.43 138.13 22.04Q137.33 21.66 136.78 20.84Q136.23 20.02 135.95 18.73Q135.67 17.45 135.67 15.64L135.67 15.64L135.67 12.60Q135.67 11.06 135.90 9.97Q136.13 8.87 136.49 8.13Q136.86 7.38 137.35 6.95Q137.84 6.52 138.35 6.29Q138.87 6.06 139.38 5.99Q139.89 5.93 140.32 5.93L140.32 5.93Q141.12 5.93 141.86 6.17Q142.59 6.41 143.16 6.99Q143.72 7.57 144.05 8.54Q144.39 9.52 144.39 10.97L144.39 10.97Q144.39 11.46 144.36 11.96Q144.33 12.47 144.28 12.96Q144.23 13.44 144.16 13.90Q144.08 14.36 144 14.74L144 14.74L138.64 14.74L138.64 16.38Q138.64 17.44 138.73 18.16Q138.81 18.88 139.00 19.32Q139.20 19.76 139.53 19.95Q139.86 20.14 140.37 20.14L140.37 20.14Q140.64 20.14 140.89 20.03Q141.15 19.92 141.35 19.66Q141.54 19.41 141.66 18.98Q141.77 18.55 141.77 17.92L141.77 17.92L141.77 17.41L144.25 17.41L144.25 18.04Q144.25 20.33 143.15 21.38Q142.05 22.43 139.98 22.43ZM138.64 12.75L141.62 12.75Q141.63 12.62 141.64 12.40Q141.66 12.19 141.66 11.95Q141.67 11.72 141.67 11.49Q141.67 11.26 141.67 11.10L141.67 11.10Q141.67 9.50 141.29 8.80Q140.92 8.10 140.18 8.10L140.18 8.10Q139.79 8.10 139.50 8.28Q139.21 8.46 139.02 8.89Q138.83 9.32 138.74 10.02Q138.64 10.72 138.64 11.77L138.64 11.77L138.64 12.75ZM146.89 22.25L146.89 6.12L149.18 6.12L149.45 7.84L149.45 7.85Q149.80 7.30 150.21 6.93Q150.61 6.56 151.04 6.34Q151.48 6.12 151.93 6.02Q152.38 5.93 152.82 5.93L152.82 5.93Q154.24 5.93 155.01 6.92Q155.78 7.91 155.78 9.89L155.78 9.89L155.78 22.25L152.81 22.25L152.81 10.00Q152.81 8.93 152.48 8.51Q152.16 8.10 151.52 8.10L151.52 8.10Q151.08 8.10 150.64 8.39Q150.20 8.68 149.86 9.20L149.86 9.20L149.86 22.25L146.89 22.25ZM159.19 18.23L159.19 8.23L157.93 8.23L157.93 6.12L159.45 6.12L160.04 1.93L162.15 1.93L162.15 6.12L164.73 6.12L164.73 8.23L162.15 8.23L162.15 18.49Q162.15 19.02 162.25 19.34Q162.35 19.66 162.53 19.85Q162.70 20.03 162.94 20.09Q163.17 20.14 163.43 20.14L163.43 20.14Q163.86 20.14 164.20 20.04Q164.53 19.93 164.84 19.75L164.84 19.75L164.84 21.39Q164.58 21.70 164.28 21.90Q163.98 22.10 163.66 22.22Q163.35 22.35 163.02 22.39Q162.69 22.44 162.38 22.44L162.38 22.44Q161.75 22.44 161.18 22.28Q160.61 22.11 160.16 21.65Q159.71 21.19 159.45 20.37Q159.19 19.55 159.19 18.23L159.19 18.23ZM168.34 3.81L168.34 3.81Q167.52 3.81 167.04 3.32Q166.57 2.82 166.57 1.88L166.57 1.88Q166.57 1.35 166.69 0.99Q166.82 0.63 167.04 0.42Q167.27 0.20 167.60 0.10Q167.93 0 168.35 0L168.35 0Q169.23 0 169.69 0.45Q170.14 0.89 170.14 1.88L170.14 1.88Q170.14 2.79 169.68 3.30Q169.22 3.81 168.34 3.81ZM166.80 22.25L166.80 6.12L169.77 6.12L169.77 22.25L166.80 22.25ZM172.86 22.25L172.86 6.12L175.15 6.12L175.42 7.84L175.42 7.85Q175.77 7.30 176.17 6.93Q176.58 6.56 177.01 6.34Q177.45 6.12 177.90 6.02Q178.35 5.93 178.79 5.93L178.79 5.93Q180.21 5.93 180.98 6.92Q181.75 7.91 181.75 9.89L181.75 9.89L181.75 22.25L178.78 22.25L178.78 10.00Q178.78 8.93 178.45 8.51Q178.13 8.10 177.49 8.10L177.49 8.10Q177.05 8.10 176.61 8.39Q176.17 8.68 175.83 9.20L175.83 9.20L175.83 22.25L172.86 22.25ZM187.04 22.43L187.04 22.43Q186.29 22.43 185.71 22.13Q185.13 21.83 184.73 21.32Q184.34 20.80 184.13 20.09Q183.93 19.38 183.93 18.55L183.93 18.55Q183.93 17.55 184.17 16.78Q184.42 16.01 184.89 15.39Q185.37 14.77 186.07 14.26Q186.77 13.75 187.70 13.29L187.70 13.29Q188.14 13.07 188.70 12.84Q189.26 12.61 189.69 12.45L189.69 12.45L189.69 10.31Q189.69 9.84 189.66 9.44Q189.62 9.04 189.49 8.74Q189.35 8.44 189.08 8.27Q188.81 8.10 188.34 8.10L188.34 8.10Q188.03 8.10 187.73 8.21Q187.43 8.33 187.20 8.61Q186.97 8.89 186.84 9.36Q186.70 9.83 186.70 10.52L186.70 10.52L186.70 11.23L184.44 11.23Q184.34 10.77 184.28 10.39Q184.23 10.01 184.23 9.63L184.23 9.63Q184.23 8.73 184.54 8.04Q184.85 7.35 185.41 6.88Q185.96 6.41 186.74 6.17Q187.51 5.93 188.44 5.93L188.44 5.93Q189.64 5.93 190.44 6.19Q191.24 6.46 191.71 6.98Q192.19 7.51 192.38 8.31Q192.57 9.11 192.57 10.17L192.57 10.17L192.57 22.25L190.37 22.25L190.16 20.87Q189.68 21.56 188.88 22.00Q188.07 22.43 187.04 22.43ZM188.36 20.14L188.36 20.14Q188.73 20.14 189.09 19.95Q189.45 19.76 189.69 19.48L189.69 19.48L189.69 14.43Q189.46 14.52 189.16 14.65Q188.87 14.78 188.53 14.99L188.53 14.99Q188.21 15.19 187.91 15.47Q187.61 15.75 187.37 16.14Q187.13 16.52 186.98 17.01Q186.83 17.50 186.83 18.09L186.83 18.09Q186.83 19.02 187.20 19.58Q187.56 20.14 188.36 20.14Z" transform="translate(0, 43)"></path></svg>